<?xml version="1.0" encoding="utf-8" standalone="no"?>
<!DOCTYPE svg PUBLIC "-//W3C//DTD SVG 1.1//EN"
  "http://www.w3.org/Graphics/SVG/1.1/DTD/svg11.dtd">
<svg xmlns:xlink="http://www.w3.org/1999/xlink" width="432pt" height="288pt" viewBox="0 0 432 288" xmlns="http://www.w3.org/2000/svg" version="1.1">
 <metadata>
  <rdf:RDF xmlns:dc="http://purl.org/dc/elements/1.1/" xmlns:cc="http://creativecommons.org/ns#" xmlns:rdf="http://www.w3.org/1999/02/22-rdf-syntax-ns#">
   <cc:Work>
    <dc:type rdf:resource="http://purl.org/dc/dcmitype/StillImage"/>
    <dc:date>2025-10-13T09:38:30.884922</dc:date>
    <dc:format>image/svg+xml</dc:format>
    <dc:creator>
     <cc:Agent>
      <dc:title>Matplotlib v3.10.7, https://matplotlib.org/</dc:title>
     </cc:Agent>
    </dc:creator>
   </cc:Work>
  </rdf:RDF>
 </metadata>
 <defs>
  <style type="text/css">*{stroke-linejoin: round; stroke-linecap: butt}</style>
 </defs>
 <g id="figure_1">
  <g id="patch_1">
   <path d="M 0 288 
L 432 288 
L 432 0 
L 0 0 
z
" style="fill: #ffffff"/>
  </g>
  <g id="axes_1">
   <g id="matplotlib.axis_1">
    <g id="xtick_1"/>
    <g id="xtick_2"/>
    <g id="xtick_3"/>
    <g id="xtick_4"/>
    <g id="xtick_5"/>
    <g id="xtick_6"/>
    <g id="xtick_7"/>
    <g id="xtick_8"/>
   </g>
   <g id="matplotlib.axis_2">
    <g id="ytick_1"/>
    <g id="ytick_2"/>
    <g id="ytick_3"/>
    <g id="ytick_4"/>
    <g id="ytick_5"/>
    <g id="ytick_6"/>
    <g id="ytick_7"/>
   </g>
   <g id="line2d_1">
    <path d="M 15.007637 166.366064 
L 73.853082 184.092244 
L 145.681387 207.1214 
L 173.045218 215.553171 
L 176.893913 216.773849 
L 166.924001 228.030797 
L 154.885093 240.98613 
L 171.153492 246.80166 
L 201.560348 256.039737 
L 235.64213 217.24328 
L 278.801428 166.058467 
L 314.247901 124.644178 
L 184.567594 80.997945 
L 106.68952 55.489718 
L 91.063525 49.458567 
L 15.007637 166.366064 
" clip-path="url(#p2b585a92f9)" style="fill: none; stroke: #f8766d; stroke-opacity: 0.298039; stroke-width: 1.240718"/>
   </g>
   <g id="line2d_2">
    <path d="M 14.97758 166.208349 
L 76.175959 184.910432 
L 176.63059 216.930733 
L 154.81223 240.769148 
L 201.229289 256.368215 
L 234.977908 217.633553 
L 314.52917 124.649146 
L 88.424475 48.72691 
L 14.97758 166.208349 
" clip-path="url(#p2b585a92f9)" style="fill: none; stroke: #00bfc4; stroke-opacity: 0.298039; stroke-width: 1.240718"/>
   </g>
   <g id="PathCollection_1">
    <path d="M 15.007637 168.581631 
C 15.595213 168.581631 16.158801 168.348185 16.57428 167.932706 
C 16.989758 167.517228 17.223205 166.953639 17.223205 166.366064 
C 17.223205 165.778488 16.989758 165.2149 16.57428 164.799421 
C 16.158801 164.383943 15.595213 164.150496 15.007637 164.150496 
C 14.420062 164.150496 13.856473 164.383943 13.440995 164.799421 
C 13.025516 165.2149 12.79207 165.778488 12.79207 166.366064 
C 12.79207 166.953639 13.025516 167.517228 13.440995 167.932706 
C 13.856473 168.348185 14.420062 168.581631 15.007637 168.581631 
L 15.007637 168.581631 
z
" clip-path="url(#p2b585a92f9)" style="fill: none; stroke: #f8766d; stroke-opacity: 0.2; stroke-width: 0.886227"/>
    <path d="M 14.97758 168.423916 
C 15.565155 168.423916 16.128744 168.19047 16.544222 167.774992 
C 16.959701 167.359513 17.193147 166.795924 17.193147 166.208349 
C 17.193147 165.620774 16.959701 165.057185 16.544222 164.641707 
C 16.128744 164.226228 15.565155 163.992782 14.97758 163.992782 
C 14.390004 163.992782 13.826415 164.226228 13.410937 164.641707 
C 12.995458 165.057185 12.762012 165.620774 12.762012 166.208349 
C 12.762012 166.795924 12.995458 167.359513 13.410937 167.774992 
C 13.826415 168.19047 14.390004 168.423916 14.97758 168.423916 
L 14.97758 168.423916 
z
" clip-path="url(#p2b585a92f9)" style="fill: none; stroke: #00bfc4; stroke-opacity: 0.2; stroke-width: 0.886227"/>
    <path d="M 73.853082 186.307811 
C 74.440657 186.307811 75.004246 186.074365 75.419724 185.658887 
C 75.835203 185.243408 76.068649 184.679819 76.068649 184.092244 
C 76.068649 183.504669 75.835203 182.94108 75.419724 182.525601 
C 75.004246 182.110123 74.440657 181.876677 73.853082 181.876677 
C 73.265506 181.876677 72.701917 182.110123 72.286439 182.525601 
C 71.87096 182.94108 71.637514 183.504669 71.637514 184.092244 
C 71.637514 184.679819 71.87096 185.243408 72.286439 185.658887 
C 72.701917 186.074365 73.265506 186.307811 73.853082 186.307811 
L 73.853082 186.307811 
z
" clip-path="url(#p2b585a92f9)" style="fill: none; stroke: #f8766d; stroke-opacity: 0.2; stroke-width: 0.886227"/>
    <path d="M 76.175959 187.126 
C 76.763534 187.126 77.327123 186.892554 77.742602 186.477075 
C 78.15808 186.061597 78.391526 185.498008 78.391526 184.910432 
C 78.391526 184.322857 78.15808 183.759268 77.742602 183.34379 
C 77.327123 182.928311 76.763534 182.694865 76.175959 182.694865 
C 75.588384 182.694865 75.024795 182.928311 74.609316 183.34379 
C 74.193838 183.759268 73.960392 184.322857 73.960392 184.910432 
C 73.960392 185.498008 74.193838 186.061597 74.609316 186.477075 
C 75.024795 186.892554 75.588384 187.126 76.175959 187.126 
L 76.175959 187.126 
z
" clip-path="url(#p2b585a92f9)" style="fill: none; stroke: #00bfc4; stroke-opacity: 0.2; stroke-width: 0.886227"/>
    <path d="M 145.681387 209.336967 
C 146.268963 209.336967 146.832552 209.103521 147.24803 208.688042 
C 147.663509 208.272564 147.896955 207.708975 147.896955 207.1214 
C 147.896955 206.533824 147.663509 205.970235 147.24803 205.554757 
C 146.832552 205.139279 146.268963 204.905832 145.681387 204.905832 
C 145.093812 204.905832 144.530223 205.139279 144.114745 205.554757 
C 143.699266 205.970235 143.46582 206.533824 143.46582 207.1214 
C 143.46582 207.708975 143.699266 208.272564 144.114745 208.688042 
C 144.530223 209.103521 145.093812 209.336967 145.681387 209.336967 
L 145.681387 209.336967 
z
" clip-path="url(#p2b585a92f9)" style="fill: none; stroke: #f8766d; stroke-opacity: 0.2; stroke-width: 0.886227"/>
    <path d="M 176.63059 219.1463 
C 177.218166 219.1463 177.781754 218.912854 178.197233 218.497376 
C 178.612711 218.081897 178.846158 217.518308 178.846158 216.930733 
C 178.846158 216.343158 178.612711 215.779569 178.197233 215.36409 
C 177.781754 214.948612 177.218166 214.715166 176.63059 214.715166 
C 176.043015 214.715166 175.479426 214.948612 175.063948 215.36409 
C 174.648469 215.779569 174.415023 216.343158 174.415023 216.930733 
C 174.415023 217.518308 174.648469 218.081897 175.063948 218.497376 
C 175.479426 218.912854 176.043015 219.1463 176.63059 219.1463 
L 176.63059 219.1463 
z
" clip-path="url(#p2b585a92f9)" style="fill: none; stroke: #00bfc4; stroke-opacity: 0.2; stroke-width: 0.886227"/>
    <path d="M 173.045218 217.768738 
C 173.632794 217.768738 174.196383 217.535292 174.611861 217.119813 
C 175.02734 216.704335 175.260786 216.140746 175.260786 215.553171 
C 175.260786 214.965595 175.02734 214.402006 174.611861 213.986528 
C 174.196383 213.571049 173.632794 213.337603 173.045218 213.337603 
C 172.457643 213.337603 171.894054 213.571049 171.478576 213.986528 
C 171.063097 214.402006 170.829651 214.965595 170.829651 215.553171 
C 170.829651 216.140746 171.063097 216.704335 171.478576 217.119813 
C 171.894054 217.535292 172.457643 217.768738 173.045218 217.768738 
L 173.045218 217.768738 
z
" clip-path="url(#p2b585a92f9)" style="fill: none; stroke: #f8766d; stroke-opacity: 0.2; stroke-width: 0.886227"/>
    <path d="M 154.81223 242.984716 
C 155.399805 242.984716 155.963394 242.751269 156.378872 242.335791 
C 156.794351 241.920312 157.027797 241.356724 157.027797 240.769148 
C 157.027797 240.181573 156.794351 239.617984 156.378872 239.202506 
C 155.963394 238.787027 155.399805 238.553581 154.81223 238.553581 
C 154.224654 238.553581 153.661066 238.787027 153.245587 239.202506 
C 152.830109 239.617984 152.596662 240.181573 152.596662 240.769148 
C 152.596662 241.356724 152.830109 241.920312 153.245587 242.335791 
C 153.661066 242.751269 154.224654 242.984716 154.81223 242.984716 
L 154.81223 242.984716 
z
" clip-path="url(#p2b585a92f9)" style="fill: none; stroke: #00bfc4; stroke-opacity: 0.2; stroke-width: 0.886227"/>
    <path d="M 176.893913 218.989417 
C 177.481489 218.989417 178.045078 218.755971 178.460556 218.340492 
C 178.876035 217.925014 179.109481 217.361425 179.109481 216.773849 
C 179.109481 216.186274 178.876035 215.622685 178.460556 215.207207 
C 178.045078 214.791728 177.481489 214.558282 176.893913 214.558282 
C 176.306338 214.558282 175.742749 214.791728 175.327271 215.207207 
C 174.911792 215.622685 174.678346 216.186274 174.678346 216.773849 
C 174.678346 217.361425 174.911792 217.925014 175.327271 218.340492 
C 175.742749 218.755971 176.306338 218.989417 176.893913 218.989417 
L 176.893913 218.989417 
z
" clip-path="url(#p2b585a92f9)" style="fill: none; stroke: #f8766d; stroke-opacity: 0.2; stroke-width: 0.886227"/>
    <path d="M 201.229289 258.583783 
C 201.816864 258.583783 202.380453 258.350336 202.795931 257.934858 
C 203.21141 257.519379 203.444856 256.955791 203.444856 256.368215 
C 203.444856 255.78064 203.21141 255.217051 202.795931 254.801573 
C 202.380453 254.386094 201.816864 254.152648 201.229289 254.152648 
C 200.641714 254.152648 200.078125 254.386094 199.662646 254.801573 
C 199.247168 255.217051 199.013722 255.78064 199.013722 256.368215 
C 199.013722 256.955791 199.247168 257.519379 199.662646 257.934858 
C 200.078125 258.350336 200.641714 258.583783 201.229289 258.583783 
L 201.229289 258.583783 
z
" clip-path="url(#p2b585a92f9)" style="fill: none; stroke: #00bfc4; stroke-opacity: 0.2; stroke-width: 0.886227"/>
    <path d="M 166.924001 230.246365 
C 167.511577 230.246365 168.075165 230.012919 168.490644 229.59744 
C 168.906122 229.181962 169.139569 228.618373 169.139569 228.030797 
C 169.139569 227.443222 168.906122 226.879633 168.490644 226.464155 
C 168.075165 226.048676 167.511577 225.81523 166.924001 225.81523 
C 166.336426 225.81523 165.772837 226.048676 165.357359 226.464155 
C 164.94188 226.879633 164.708434 227.443222 164.708434 228.030797 
C 164.708434 228.618373 164.94188 229.181962 165.357359 229.59744 
C 165.772837 230.012919 166.336426 230.246365 166.924001 230.246365 
L 166.924001 230.246365 
z
" clip-path="url(#p2b585a92f9)" style="fill: none; stroke: #f8766d; stroke-opacity: 0.2; stroke-width: 0.886227"/>
    <path d="M 234.977908 219.84912 
C 235.565483 219.84912 236.129072 219.615674 236.54455 219.200196 
C 236.960029 218.784717 237.193475 218.221128 237.193475 217.633553 
C 237.193475 217.045978 236.960029 216.482389 236.54455 216.06691 
C 236.129072 215.651432 235.565483 215.417986 234.977908 215.417986 
C 234.390332 215.417986 233.826743 215.651432 233.411265 216.06691 
C 232.995786 216.482389 232.76234 217.045978 232.76234 217.633553 
C 232.76234 218.221128 232.995786 218.784717 233.411265 219.200196 
C 233.826743 219.615674 234.390332 219.84912 234.977908 219.84912 
L 234.977908 219.84912 
z
" clip-path="url(#p2b585a92f9)" style="fill: none; stroke: #00bfc4; stroke-opacity: 0.2; stroke-width: 0.886227"/>
    <path d="M 154.885093 243.201697 
C 155.472669 243.201697 156.036257 242.968251 156.451736 242.552772 
C 156.867214 242.137294 157.100661 241.573705 157.100661 240.98613 
C 157.100661 240.398554 156.867214 239.834965 156.451736 239.419487 
C 156.036257 239.004008 155.472669 238.770562 154.885093 238.770562 
C 154.297518 238.770562 153.733929 239.004008 153.318451 239.419487 
C 152.902972 239.834965 152.669526 240.398554 152.669526 240.98613 
C 152.669526 241.573705 152.902972 242.137294 153.318451 242.552772 
C 153.733929 242.968251 154.297518 243.201697 154.885093 243.201697 
L 154.885093 243.201697 
z
" clip-path="url(#p2b585a92f9)" style="fill: none; stroke: #f8766d; stroke-opacity: 0.2; stroke-width: 0.886227"/>
    <path d="M 314.52917 126.864714 
C 315.116746 126.864714 315.680335 126.631268 316.095813 126.215789 
C 316.511292 125.800311 316.744738 125.236722 316.744738 124.649146 
C 316.744738 124.061571 316.511292 123.497982 316.095813 123.082504 
C 315.680335 122.667025 315.116746 122.433579 314.52917 122.433579 
C 313.941595 122.433579 313.378006 122.667025 312.962528 123.082504 
C 312.547049 123.497982 312.313603 124.061571 312.313603 124.649146 
C 312.313603 125.236722 312.547049 125.800311 312.962528 126.215789 
C 313.378006 126.631268 313.941595 126.864714 314.52917 126.864714 
L 314.52917 126.864714 
z
" clip-path="url(#p2b585a92f9)" style="fill: none; stroke: #00bfc4; stroke-opacity: 0.2; stroke-width: 0.886227"/>
    <path d="M 171.153492 249.017227 
C 171.741068 249.017227 172.304656 248.783781 172.720135 248.368302 
C 173.135613 247.952824 173.36906 247.389235 173.36906 246.80166 
C 173.36906 246.214084 173.135613 245.650496 172.720135 245.235017 
C 172.304656 244.819539 171.741068 244.586092 171.153492 244.586092 
C 170.565917 244.586092 170.002328 244.819539 169.58685 245.235017 
C 169.171371 245.650496 168.937925 246.214084 168.937925 246.80166 
C 168.937925 247.389235 169.171371 247.952824 169.58685 248.368302 
C 170.002328 248.783781 170.565917 249.017227 171.153492 249.017227 
L 171.153492 249.017227 
z
" clip-path="url(#p2b585a92f9)" style="fill: none; stroke: #f8766d; stroke-opacity: 0.2; stroke-width: 0.886227"/>
    <path d="M 88.424475 50.942477 
C 89.012051 50.942477 89.57564 50.709031 89.991118 50.293552 
C 90.406597 49.878074 90.640043 49.314485 90.640043 48.72691 
C 90.640043 48.139334 90.406597 47.575746 89.991118 47.160267 
C 89.57564 46.744789 89.012051 46.511342 88.424475 46.511342 
C 87.8369 46.511342 87.273311 46.744789 86.857833 47.160267 
C 86.442354 47.575746 86.208908 48.139334 86.208908 48.72691 
C 86.208908 49.314485 86.442354 49.878074 86.857833 50.293552 
C 87.273311 50.709031 87.8369 50.942477 88.424475 50.942477 
L 88.424475 50.942477 
z
" clip-path="url(#p2b585a92f9)" style="fill: none; stroke: #00bfc4; stroke-opacity: 0.2; stroke-width: 0.886227"/>
    <path d="M 201.560348 258.255305 
C 202.147923 258.255305 202.711512 258.021859 203.126991 257.60638 
C 203.542469 257.190902 203.775915 256.627313 203.775915 256.039737 
C 203.775915 255.452162 203.542469 254.888573 203.126991 254.473095 
C 202.711512 254.057616 202.147923 253.82417 201.560348 253.82417 
C 200.972773 253.82417 200.409184 254.057616 199.993705 254.473095 
C 199.578227 254.888573 199.344781 255.452162 199.344781 256.039737 
C 199.344781 256.627313 199.578227 257.190902 199.993705 257.60638 
C 200.409184 258.021859 200.972773 258.255305 201.560348 258.255305 
L 201.560348 258.255305 
z
" clip-path="url(#p2b585a92f9)" style="fill: none; stroke: #f8766d; stroke-opacity: 0.2; stroke-width: 0.886227"/>
    <path d="M 14.97758 168.423916 
C 15.565155 168.423916 16.128744 168.19047 16.544222 167.774992 
C 16.959701 167.359513 17.193147 166.795924 17.193147 166.208349 
C 17.193147 165.620774 16.959701 165.057185 16.544222 164.641707 
C 16.128744 164.226228 15.565155 163.992782 14.97758 163.992782 
C 14.390004 163.992782 13.826415 164.226228 13.410937 164.641707 
C 12.995458 165.057185 12.762012 165.620774 12.762012 166.208349 
C 12.762012 166.795924 12.995458 167.359513 13.410937 167.774992 
C 13.826415 168.19047 14.390004 168.423916 14.97758 168.423916 
L 14.97758 168.423916 
z
" clip-path="url(#p2b585a92f9)" style="fill: none; stroke: #00bfc4; stroke-opacity: 0.2; stroke-width: 0.886227"/>
    <path d="M 235.64213 219.458847 
C 236.229705 219.458847 236.793294 219.225401 237.208773 218.809923 
C 237.624251 218.394444 237.857697 217.830855 237.857697 217.24328 
C 237.857697 216.655705 237.624251 216.092116 237.208773 215.676637 
C 236.793294 215.261159 236.229705 215.027713 235.64213 215.027713 
C 235.054555 215.027713 234.490966 215.261159 234.075487 215.676637 
C 233.660009 216.092116 233.426563 216.655705 233.426563 217.24328 
C 233.426563 217.830855 233.660009 218.394444 234.075487 218.809923 
C 234.490966 219.225401 235.054555 219.458847 235.64213 219.458847 
L 235.64213 219.458847 
z
" clip-path="url(#p2b585a92f9)" style="fill: none; stroke: #f8766d; stroke-opacity: 0.2; stroke-width: 0.886227"/>
    <path d="M 278.801428 168.274035 
C 279.389004 168.274035 279.952593 168.040588 280.368071 167.62511 
C 280.78355 167.209631 281.016996 166.646043 281.016996 166.058467 
C 281.016996 165.470892 280.78355 164.907303 280.368071 164.491825 
C 279.952593 164.076346 279.389004 163.8429 278.801428 163.8429 
C 278.213853 163.8429 277.650264 164.076346 277.234786 164.491825 
C 276.819307 164.907303 276.585861 165.470892 276.585861 166.058467 
C 276.585861 166.646043 276.819307 167.209631 277.234786 167.62511 
C 277.650264 168.040588 278.213853 168.274035 278.801428 168.274035 
L 278.801428 168.274035 
z
" clip-path="url(#p2b585a92f9)" style="fill: none; stroke: #f8766d; stroke-opacity: 0.2; stroke-width: 0.886227"/>
    <path d="M 314.247901 126.859745 
C 314.835476 126.859745 315.399065 126.626299 315.814544 126.210821 
C 316.230022 125.795342 316.463468 125.231753 316.463468 124.644178 
C 316.463468 124.056603 316.230022 123.493014 315.814544 123.077535 
C 315.399065 122.662057 314.835476 122.428611 314.247901 122.428611 
C 313.660326 122.428611 313.096737 122.662057 312.681258 123.077535 
C 312.26578 123.493014 312.032334 124.056603 312.032334 124.644178 
C 312.032334 125.231753 312.26578 125.795342 312.681258 126.210821 
C 313.096737 126.626299 313.660326 126.859745 314.247901 126.859745 
L 314.247901 126.859745 
z
" clip-path="url(#p2b585a92f9)" style="fill: none; stroke: #f8766d; stroke-opacity: 0.2; stroke-width: 0.886227"/>
    <path d="M 184.567594 83.213512 
C 185.155169 83.213512 185.718758 82.980066 186.134236 82.564587 
C 186.549715 82.149109 186.783161 81.58552 186.783161 80.997945 
C 186.783161 80.410369 186.549715 79.84678 186.134236 79.431302 
C 185.718758 79.015823 185.155169 78.782377 184.567594 78.782377 
C 183.980018 78.782377 183.416429 79.015823 183.000951 79.431302 
C 182.585472 79.84678 182.352026 80.410369 182.352026 80.997945 
C 182.352026 81.58552 182.585472 82.149109 183.000951 82.564587 
C 183.416429 82.980066 183.980018 83.213512 184.567594 83.213512 
L 184.567594 83.213512 
z
" clip-path="url(#p2b585a92f9)" style="fill: none; stroke: #f8766d; stroke-opacity: 0.2; stroke-width: 0.886227"/>
    <path d="M 106.68952 57.705285 
C 107.277095 57.705285 107.840684 57.471839 108.256162 57.05636 
C 108.671641 56.640882 108.905087 56.077293 108.905087 55.489718 
C 108.905087 54.902142 108.671641 54.338553 108.256162 53.923075 
C 107.840684 53.507596 107.277095 53.27415 106.68952 53.27415 
C 106.101944 53.27415 105.538355 53.507596 105.122877 53.923075 
C 104.707398 54.338553 104.473952 54.902142 104.473952 55.489718 
C 104.473952 56.077293 104.707398 56.640882 105.122877 57.05636 
C 105.538355 57.471839 106.101944 57.705285 106.68952 57.705285 
L 106.68952 57.705285 
z
" clip-path="url(#p2b585a92f9)" style="fill: none; stroke: #f8766d; stroke-opacity: 0.2; stroke-width: 0.886227"/>
    <path d="M 91.063525 51.674135 
C 91.6511 51.674135 92.214689 51.440689 92.630167 51.02521 
C 93.045646 50.609732 93.279092 50.046143 93.279092 49.458567 
C 93.279092 48.870992 93.045646 48.307403 92.630167 47.891925 
C 92.214689 47.476446 91.6511 47.243 91.063525 47.243 
C 90.475949 47.243 89.91236 47.476446 89.496882 47.891925 
C 89.081403 48.307403 88.847957 48.870992 88.847957 49.458567 
C 88.847957 50.046143 89.081403 50.609732 89.496882 51.02521 
C 89.91236 51.440689 90.475949 51.674135 91.063525 51.674135 
L 91.063525 51.674135 
z
" clip-path="url(#p2b585a92f9)" style="fill: none; stroke: #f8766d; stroke-opacity: 0.2; stroke-width: 0.886227"/>
    <path d="M 15.007637 168.581631 
C 15.595213 168.581631 16.158801 168.348185 16.57428 167.932706 
C 16.989758 167.517228 17.223205 166.953639 17.223205 166.366064 
C 17.223205 165.778488 16.989758 165.2149 16.57428 164.799421 
C 16.158801 164.383943 15.595213 164.150496 15.007637 164.150496 
C 14.420062 164.150496 13.856473 164.383943 13.440995 164.799421 
C 13.025516 165.2149 12.79207 165.778488 12.79207 166.366064 
C 12.79207 166.953639 13.025516 167.517228 13.440995 167.932706 
C 13.856473 168.348185 14.420062 168.581631 15.007637 168.581631 
L 15.007637 168.581631 
z
" clip-path="url(#p2b585a92f9)" style="fill: none; stroke: #f8766d; stroke-opacity: 0.2; stroke-width: 0.886227"/>
   </g>
  </g>
  <g id="text_1">
   <!-- Enfield boundary: OSM vs. surveyed corners -->
   <g transform="translate(18.836656 31.279657) scale(0.132 -0.132)">
    <defs>
     <path id="DejaVuSans-45" d="M 628 4666 
L 3578 4666 
L 3578 4134 
L 1259 4134 
L 1259 2753 
L 3481 2753 
L 3481 2222 
L 1259 2222 
L 1259 531 
L 3634 531 
L 3634 0 
L 628 0 
L 628 4666 
z
" transform="scale(0.015625)"/>
     <path id="DejaVuSans-6e" d="M 3513 2113 
L 3513 0 
L 2938 0 
L 2938 2094 
Q 2938 2591 2744 2837 
Q 2550 3084 2163 3084 
Q 1697 3084 1428 2787 
Q 1159 2491 1159 1978 
L 1159 0 
L 581 0 
L 581 3500 
L 1159 3500 
L 1159 2956 
Q 1366 3272 1645 3428 
Q 1925 3584 2291 3584 
Q 2894 3584 3203 3211 
Q 3513 2838 3513 2113 
z
" transform="scale(0.015625)"/>
     <path id="DejaVuSans-66" d="M 2375 4863 
L 2375 4384 
L 1825 4384 
Q 1516 4384 1395 4259 
Q 1275 4134 1275 3809 
L 1275 3500 
L 2222 3500 
L 2222 3053 
L 1275 3053 
L 1275 0 
L 697 0 
L 697 3053 
L 147 3053 
L 147 3500 
L 697 3500 
L 697 3744 
Q 697 4328 969 4595 
Q 1241 4863 1831 4863 
L 2375 4863 
z
" transform="scale(0.015625)"/>
     <path id="DejaVuSans-69" d="M 603 3500 
L 1178 3500 
L 1178 0 
L 603 0 
L 603 3500 
z
M 603 4863 
L 1178 4863 
L 1178 4134 
L 603 4134 
L 603 4863 
z
" transform="scale(0.015625)"/>
     <path id="DejaVuSans-65" d="M 3597 1894 
L 3597 1613 
L 953 1613 
Q 991 1019 1311 708 
Q 1631 397 2203 397 
Q 2534 397 2845 478 
Q 3156 559 3463 722 
L 3463 178 
Q 3153 47 2828 -22 
Q 2503 -91 2169 -91 
Q 1331 -91 842 396 
Q 353 884 353 1716 
Q 353 2575 817 3079 
Q 1281 3584 2069 3584 
Q 2775 3584 3186 3129 
Q 3597 2675 3597 1894 
z
M 3022 2063 
Q 3016 2534 2758 2815 
Q 2500 3097 2075 3097 
Q 1594 3097 1305 2825 
Q 1016 2553 972 2059 
L 3022 2063 
z
" transform="scale(0.015625)"/>
     <path id="DejaVuSans-6c" d="M 603 4863 
L 1178 4863 
L 1178 0 
L 603 0 
L 603 4863 
z
" transform="scale(0.015625)"/>
     <path id="DejaVuSans-64" d="M 2906 2969 
L 2906 4863 
L 3481 4863 
L 3481 0 
L 2906 0 
L 2906 525 
Q 2725 213 2448 61 
Q 2172 -91 1784 -91 
Q 1150 -91 751 415 
Q 353 922 353 1747 
Q 353 2572 751 3078 
Q 1150 3584 1784 3584 
Q 2172 3584 2448 3432 
Q 2725 3281 2906 2969 
z
M 947 1747 
Q 947 1113 1208 752 
Q 1469 391 1925 391 
Q 2381 391 2643 752 
Q 2906 1113 2906 1747 
Q 2906 2381 2643 2742 
Q 2381 3103 1925 3103 
Q 1469 3103 1208 2742 
Q 947 2381 947 1747 
z
" transform="scale(0.015625)"/>
     <path id="DejaVuSans-20" transform="scale(0.015625)"/>
     <path id="DejaVuSans-62" d="M 3116 1747 
Q 3116 2381 2855 2742 
Q 2594 3103 2138 3103 
Q 1681 3103 1420 2742 
Q 1159 2381 1159 1747 
Q 1159 1113 1420 752 
Q 1681 391 2138 391 
Q 2594 391 2855 752 
Q 3116 1113 3116 1747 
z
M 1159 2969 
Q 1341 3281 1617 3432 
Q 1894 3584 2278 3584 
Q 2916 3584 3314 3078 
Q 3713 2572 3713 1747 
Q 3713 922 3314 415 
Q 2916 -91 2278 -91 
Q 1894 -91 1617 61 
Q 1341 213 1159 525 
L 1159 0 
L 581 0 
L 581 4863 
L 1159 4863 
L 1159 2969 
z
" transform="scale(0.015625)"/>
     <path id="DejaVuSans-6f" d="M 1959 3097 
Q 1497 3097 1228 2736 
Q 959 2375 959 1747 
Q 959 1119 1226 758 
Q 1494 397 1959 397 
Q 2419 397 2687 759 
Q 2956 1122 2956 1747 
Q 2956 2369 2687 2733 
Q 2419 3097 1959 3097 
z
M 1959 3584 
Q 2709 3584 3137 3096 
Q 3566 2609 3566 1747 
Q 3566 888 3137 398 
Q 2709 -91 1959 -91 
Q 1206 -91 779 398 
Q 353 888 353 1747 
Q 353 2609 779 3096 
Q 1206 3584 1959 3584 
z
" transform="scale(0.015625)"/>
     <path id="DejaVuSans-75" d="M 544 1381 
L 544 3500 
L 1119 3500 
L 1119 1403 
Q 1119 906 1312 657 
Q 1506 409 1894 409 
Q 2359 409 2629 706 
Q 2900 1003 2900 1516 
L 2900 3500 
L 3475 3500 
L 3475 0 
L 2900 0 
L 2900 538 
Q 2691 219 2414 64 
Q 2138 -91 1772 -91 
Q 1169 -91 856 284 
Q 544 659 544 1381 
z
M 1991 3584 
L 1991 3584 
z
" transform="scale(0.015625)"/>
     <path id="DejaVuSans-61" d="M 2194 1759 
Q 1497 1759 1228 1600 
Q 959 1441 959 1056 
Q 959 750 1161 570 
Q 1363 391 1709 391 
Q 2188 391 2477 730 
Q 2766 1069 2766 1631 
L 2766 1759 
L 2194 1759 
z
M 3341 1997 
L 3341 0 
L 2766 0 
L 2766 531 
Q 2569 213 2275 61 
Q 1981 -91 1556 -91 
Q 1019 -91 701 211 
Q 384 513 384 1019 
Q 384 1609 779 1909 
Q 1175 2209 1959 2209 
L 2766 2209 
L 2766 2266 
Q 2766 2663 2505 2880 
Q 2244 3097 1772 3097 
Q 1472 3097 1187 3025 
Q 903 2953 641 2809 
L 641 3341 
Q 956 3463 1253 3523 
Q 1550 3584 1831 3584 
Q 2591 3584 2966 3190 
Q 3341 2797 3341 1997 
z
" transform="scale(0.015625)"/>
     <path id="DejaVuSans-72" d="M 2631 2963 
Q 2534 3019 2420 3045 
Q 2306 3072 2169 3072 
Q 1681 3072 1420 2755 
Q 1159 2438 1159 1844 
L 1159 0 
L 581 0 
L 581 3500 
L 1159 3500 
L 1159 2956 
Q 1341 3275 1631 3429 
Q 1922 3584 2338 3584 
Q 2397 3584 2469 3576 
Q 2541 3569 2628 3553 
L 2631 2963 
z
" transform="scale(0.015625)"/>
     <path id="DejaVuSans-79" d="M 2059 -325 
Q 1816 -950 1584 -1140 
Q 1353 -1331 966 -1331 
L 506 -1331 
L 506 -850 
L 844 -850 
Q 1081 -850 1212 -737 
Q 1344 -625 1503 -206 
L 1606 56 
L 191 3500 
L 800 3500 
L 1894 763 
L 2988 3500 
L 3597 3500 
L 2059 -325 
z
" transform="scale(0.015625)"/>
     <path id="DejaVuSans-3a" d="M 750 794 
L 1409 794 
L 1409 0 
L 750 0 
L 750 794 
z
M 750 3309 
L 1409 3309 
L 1409 2516 
L 750 2516 
L 750 3309 
z
" transform="scale(0.015625)"/>
     <path id="DejaVuSans-4f" d="M 2522 4238 
Q 1834 4238 1429 3725 
Q 1025 3213 1025 2328 
Q 1025 1447 1429 934 
Q 1834 422 2522 422 
Q 3209 422 3611 934 
Q 4013 1447 4013 2328 
Q 4013 3213 3611 3725 
Q 3209 4238 2522 4238 
z
M 2522 4750 
Q 3503 4750 4090 4092 
Q 4678 3434 4678 2328 
Q 4678 1225 4090 567 
Q 3503 -91 2522 -91 
Q 1538 -91 948 565 
Q 359 1222 359 2328 
Q 359 3434 948 4092 
Q 1538 4750 2522 4750 
z
" transform="scale(0.015625)"/>
     <path id="DejaVuSans-53" d="M 3425 4513 
L 3425 3897 
Q 3066 4069 2747 4153 
Q 2428 4238 2131 4238 
Q 1616 4238 1336 4038 
Q 1056 3838 1056 3469 
Q 1056 3159 1242 3001 
Q 1428 2844 1947 2747 
L 2328 2669 
Q 3034 2534 3370 2195 
Q 3706 1856 3706 1288 
Q 3706 609 3251 259 
Q 2797 -91 1919 -91 
Q 1588 -91 1214 -16 
Q 841 59 441 206 
L 441 856 
Q 825 641 1194 531 
Q 1563 422 1919 422 
Q 2459 422 2753 634 
Q 3047 847 3047 1241 
Q 3047 1584 2836 1778 
Q 2625 1972 2144 2069 
L 1759 2144 
Q 1053 2284 737 2584 
Q 422 2884 422 3419 
Q 422 4038 858 4394 
Q 1294 4750 2059 4750 
Q 2388 4750 2728 4690 
Q 3069 4631 3425 4513 
z
" transform="scale(0.015625)"/>
     <path id="DejaVuSans-4d" d="M 628 4666 
L 1569 4666 
L 2759 1491 
L 3956 4666 
L 4897 4666 
L 4897 0 
L 4281 0 
L 4281 4097 
L 3078 897 
L 2444 897 
L 1241 4097 
L 1241 0 
L 628 0 
L 628 4666 
z
" transform="scale(0.015625)"/>
     <path id="DejaVuSans-76" d="M 191 3500 
L 800 3500 
L 1894 563 
L 2988 3500 
L 3597 3500 
L 2284 0 
L 1503 0 
L 191 3500 
z
" transform="scale(0.015625)"/>
     <path id="DejaVuSans-73" d="M 2834 3397 
L 2834 2853 
Q 2591 2978 2328 3040 
Q 2066 3103 1784 3103 
Q 1356 3103 1142 2972 
Q 928 2841 928 2578 
Q 928 2378 1081 2264 
Q 1234 2150 1697 2047 
L 1894 2003 
Q 2506 1872 2764 1633 
Q 3022 1394 3022 966 
Q 3022 478 2636 193 
Q 2250 -91 1575 -91 
Q 1294 -91 989 -36 
Q 684 19 347 128 
L 347 722 
Q 666 556 975 473 
Q 1284 391 1588 391 
Q 1994 391 2212 530 
Q 2431 669 2431 922 
Q 2431 1156 2273 1281 
Q 2116 1406 1581 1522 
L 1381 1569 
Q 847 1681 609 1914 
Q 372 2147 372 2553 
Q 372 3047 722 3315 
Q 1072 3584 1716 3584 
Q 2034 3584 2315 3537 
Q 2597 3491 2834 3397 
z
" transform="scale(0.015625)"/>
     <path id="DejaVuSans-2e" d="M 684 794 
L 1344 794 
L 1344 0 
L 684 0 
L 684 794 
z
" transform="scale(0.015625)"/>
     <path id="DejaVuSans-63" d="M 3122 3366 
L 3122 2828 
Q 2878 2963 2633 3030 
Q 2388 3097 2138 3097 
Q 1578 3097 1268 2742 
Q 959 2388 959 1747 
Q 959 1106 1268 751 
Q 1578 397 2138 397 
Q 2388 397 2633 464 
Q 2878 531 3122 666 
L 3122 134 
Q 2881 22 2623 -34 
Q 2366 -91 2075 -91 
Q 1284 -91 818 406 
Q 353 903 353 1747 
Q 353 2603 823 3093 
Q 1294 3584 2113 3584 
Q 2378 3584 2631 3529 
Q 2884 3475 3122 3366 
z
" transform="scale(0.015625)"/>
    </defs>
    <use xlink:href="#DejaVuSans-45"/>
    <use xlink:href="#DejaVuSans-6e" transform="translate(63.183594 0)"/>
    <use xlink:href="#DejaVuSans-66" transform="translate(126.5625 0)"/>
    <use xlink:href="#DejaVuSans-69" transform="translate(161.767578 0)"/>
    <use xlink:href="#DejaVuSans-65" transform="translate(189.550781 0)"/>
    <use xlink:href="#DejaVuSans-6c" transform="translate(251.074219 0)"/>
    <use xlink:href="#DejaVuSans-64" transform="translate(278.857422 0)"/>
    <use xlink:href="#DejaVuSans-20" transform="translate(342.333984 0)"/>
    <use xlink:href="#DejaVuSans-62" transform="translate(374.121094 0)"/>
    <use xlink:href="#DejaVuSans-6f" transform="translate(437.597656 0)"/>
    <use xlink:href="#DejaVuSans-75" transform="translate(498.779297 0)"/>
    <use xlink:href="#DejaVuSans-6e" transform="translate(562.158203 0)"/>
    <use xlink:href="#DejaVuSans-64" transform="translate(625.537109 0)"/>
    <use xlink:href="#DejaVuSans-61" transform="translate(689.013672 0)"/>
    <use xlink:href="#DejaVuSans-72" transform="translate(750.292969 0)"/>
    <use xlink:href="#DejaVuSans-79" transform="translate(791.40625 0)"/>
    <use xlink:href="#DejaVuSans-3a" transform="translate(843.335938 0)"/>
    <use xlink:href="#DejaVuSans-20" transform="translate(877.027344 0)"/>
    <use xlink:href="#DejaVuSans-4f" transform="translate(908.814453 0)"/>
    <use xlink:href="#DejaVuSans-53" transform="translate(987.525391 0)"/>
    <use xlink:href="#DejaVuSans-4d" transform="translate(1051.001953 0)"/>
    <use xlink:href="#DejaVuSans-20" transform="translate(1137.28125 0)"/>
    <use xlink:href="#DejaVuSans-76" transform="translate(1169.068359 0)"/>
    <use xlink:href="#DejaVuSans-73" transform="translate(1228.248047 0)"/>
    <use xlink:href="#DejaVuSans-2e" transform="translate(1280.347656 0)"/>
    <use xlink:href="#DejaVuSans-20" transform="translate(1312.134766 0)"/>
    <use xlink:href="#DejaVuSans-73" transform="translate(1343.921875 0)"/>
    <use xlink:href="#DejaVuSans-75" transform="translate(1396.021484 0)"/>
    <use xlink:href="#DejaVuSans-72" transform="translate(1459.400391 0)"/>
    <use xlink:href="#DejaVuSans-76" transform="translate(1500.513672 0)"/>
    <use xlink:href="#DejaVuSans-65" transform="translate(1559.693359 0)"/>
    <use xlink:href="#DejaVuSans-79" transform="translate(1621.216797 0)"/>
    <use xlink:href="#DejaVuSans-65" transform="translate(1680.396484 0)"/>
    <use xlink:href="#DejaVuSans-64" transform="translate(1741.919922 0)"/>
    <use xlink:href="#DejaVuSans-20" transform="translate(1805.396484 0)"/>
    <use xlink:href="#DejaVuSans-63" transform="translate(1837.183594 0)"/>
    <use xlink:href="#DejaVuSans-6f" transform="translate(1892.164062 0)"/>
    <use xlink:href="#DejaVuSans-72" transform="translate(1953.345703 0)"/>
    <use xlink:href="#DejaVuSans-6e" transform="translate(1992.708984 0)"/>
    <use xlink:href="#DejaVuSans-65" transform="translate(2056.087891 0)"/>
    <use xlink:href="#DejaVuSans-72" transform="translate(2117.611328 0)"/>
    <use xlink:href="#DejaVuSans-73" transform="translate(2158.724609 0)"/>
   </g>
  </g>
  <g id="text_2">
   <!-- source -->
   <g transform="translate(343.46675 138.022875) scale(0.11 -0.11)">
    <use xlink:href="#DejaVuSans-73"/>
    <use xlink:href="#DejaVuSans-6f" transform="translate(52.099609 0)"/>
    <use xlink:href="#DejaVuSans-75" transform="translate(113.28125 0)"/>
    <use xlink:href="#DejaVuSans-72" transform="translate(176.660156 0)"/>
    <use xlink:href="#DejaVuSans-63" transform="translate(215.523438 0)"/>
    <use xlink:href="#DejaVuSans-65" transform="translate(270.503906 0)"/>
   </g>
  </g>
  <g id="line2d_3">
   <path d="M 343.46675 149.670531 
L 359.30675 149.670531 
" clip-path="url(#pbd42592020)" style="fill: none; stroke: #f8766d; stroke-opacity: 0.298039; stroke-width: 1.240718"/>
  </g>
  <g id="line2d_4">
   <path d="M 351.38675 149.670531 
" clip-path="url(#pbd42592020)" style="fill: none; stroke: #1f77b4; stroke-width: 1.5; stroke-linecap: square"/>
   <defs>
    <path id="m350d8f0e8f" d="M 0 2.215567 
C 0.587575 2.215567 1.151164 1.982121 1.566643 1.566643 
C 1.982121 1.151164 2.215567 0.587575 2.215567 0 
C 2.215567 -0.587575 1.982121 -1.151164 1.566643 -1.566643 
C 1.151164 -1.982121 0.587575 -2.215567 0 -2.215567 
C -0.587575 -2.215567 -1.151164 -1.982121 -1.566643 -1.566643 
C -1.982121 -1.151164 -2.215567 -0.587575 -2.215567 0 
C -2.215567 0.587575 -1.982121 1.151164 -1.566643 1.566643 
C -1.151164 1.982121 -0.587575 2.215567 0 2.215567 
z
" style="stroke: #f8766d; stroke-opacity: 0.2; stroke-width: 0.886227"/>
   </defs>
   <g clip-path="url(#pbd42592020)">
    <use xlink:href="#m350d8f0e8f" x="351.38675" y="149.670531" style="fill-opacity: 0; stroke: #f8766d; stroke-opacity: 0.2; stroke-width: 0.886227"/>
   </g>
  </g>
  <g id="text_3">
   <!-- OpenStreetMap -->
   <g transform="translate(362.18675 152.098781) scale(0.088 -0.088)">
    <defs>
     <path id="DejaVuSans-70" d="M 1159 525 
L 1159 -1331 
L 581 -1331 
L 581 3500 
L 1159 3500 
L 1159 2969 
Q 1341 3281 1617 3432 
Q 1894 3584 2278 3584 
Q 2916 3584 3314 3078 
Q 3713 2572 3713 1747 
Q 3713 922 3314 415 
Q 2916 -91 2278 -91 
Q 1894 -91 1617 61 
Q 1341 213 1159 525 
z
M 3116 1747 
Q 3116 2381 2855 2742 
Q 2594 3103 2138 3103 
Q 1681 3103 1420 2742 
Q 1159 2381 1159 1747 
Q 1159 1113 1420 752 
Q 1681 391 2138 391 
Q 2594 391 2855 752 
Q 3116 1113 3116 1747 
z
" transform="scale(0.015625)"/>
     <path id="DejaVuSans-74" d="M 1172 4494 
L 1172 3500 
L 2356 3500 
L 2356 3053 
L 1172 3053 
L 1172 1153 
Q 1172 725 1289 603 
Q 1406 481 1766 481 
L 2356 481 
L 2356 0 
L 1766 0 
Q 1100 0 847 248 
Q 594 497 594 1153 
L 594 3053 
L 172 3053 
L 172 3500 
L 594 3500 
L 594 4494 
L 1172 4494 
z
" transform="scale(0.015625)"/>
    </defs>
    <use xlink:href="#DejaVuSans-4f"/>
    <use xlink:href="#DejaVuSans-70" transform="translate(78.710938 0)"/>
    <use xlink:href="#DejaVuSans-65" transform="translate(142.1875 0)"/>
    <use xlink:href="#DejaVuSans-6e" transform="translate(203.710938 0)"/>
    <use xlink:href="#DejaVuSans-53" transform="translate(267.089844 0)"/>
    <use xlink:href="#DejaVuSans-74" transform="translate(330.566406 0)"/>
    <use xlink:href="#DejaVuSans-72" transform="translate(369.775391 0)"/>
    <use xlink:href="#DejaVuSans-65" transform="translate(408.638672 0)"/>
    <use xlink:href="#DejaVuSans-65" transform="translate(470.162109 0)"/>
    <use xlink:href="#DejaVuSans-74" transform="translate(531.685547 0)"/>
    <use xlink:href="#DejaVuSans-4d" transform="translate(570.894531 0)"/>
    <use xlink:href="#DejaVuSans-61" transform="translate(657.173828 0)"/>
    <use xlink:href="#DejaVuSans-70" transform="translate(718.453125 0)"/>
   </g>
  </g>
  <g id="line2d_5">
   <path d="M 343.46675 167.510531 
L 359.30675 167.510531 
" clip-path="url(#pd7cd19704a)" style="fill: none; stroke: #00bfc4; stroke-opacity: 0.298039; stroke-width: 1.240718"/>
  </g>
  <g id="line2d_6">
   <path d="M 351.38675 167.510531 
" clip-path="url(#pd7cd19704a)" style="fill: none; stroke: #1f77b4; stroke-width: 1.5; stroke-linecap: square"/>
   <defs>
    <path id="m4e951eceb1" d="M 0 2.215567 
C 0.587575 2.215567 1.151164 1.982121 1.566643 1.566643 
C 1.982121 1.151164 2.215567 0.587575 2.215567 0 
C 2.215567 -0.587575 1.982121 -1.151164 1.566643 -1.566643 
C 1.151164 -1.982121 0.587575 -2.215567 0 -2.215567 
C -0.587575 -2.215567 -1.151164 -1.982121 -1.566643 -1.566643 
C -1.982121 -1.151164 -2.215567 -0.587575 -2.215567 0 
C -2.215567 0.587575 -1.982121 1.151164 -1.566643 1.566643 
C -1.151164 1.982121 -0.587575 2.215567 0 2.215567 
z
" style="stroke: #00bfc4; stroke-opacity: 0.2; stroke-width: 0.886227"/>
   </defs>
   <g clip-path="url(#pd7cd19704a)">
    <use xlink:href="#m4e951eceb1" x="351.38675" y="167.510531" style="fill-opacity: 0; stroke: #00bfc4; stroke-opacity: 0.2; stroke-width: 0.886227"/>
   </g>
  </g>
  <g id="text_4">
   <!-- Survey -->
   <g transform="translate(362.18675 169.938781) scale(0.088 -0.088)">
    <use xlink:href="#DejaVuSans-53"/>
    <use xlink:href="#DejaVuSans-75" transform="translate(63.476562 0)"/>
    <use xlink:href="#DejaVuSans-72" transform="translate(126.855469 0)"/>
    <use xlink:href="#DejaVuSans-76" transform="translate(167.96875 0)"/>
    <use xlink:href="#DejaVuSans-65" transform="translate(227.148438 0)"/>
    <use xlink:href="#DejaVuSans-79" transform="translate(288.671875 0)"/>
   </g>
  </g>
 </g>
 <defs>
  <clipPath id="p2b585a92f9">
   <rect x="0" y="38.344845" width="329.50675" height="228.405436"/>
  </clipPath>
  <clipPath id="pbd42592020">
   <path d="M 343.46675 157.590531 
L 343.46675 141.750531 
L 359.30675 141.750531 
L 359.30675 157.590531 
"/>
  </clipPath>
  <clipPath id="pd7cd19704a">
   <path d="M 343.46675 175.430531 
L 343.46675 159.590531 
L 359.30675 159.590531 
L 359.30675 175.430531 
"/>
  </clipPath>
 </defs>
</svg>
